<?xml version="1.0" encoding="utf-8"?>
<!-- Generator: Adobe Illustrator 15.0.0, SVG Export Plug-In . SVG Version: 6.00 Build 0)  -->
<!DOCTYPE svg PUBLIC "-//W3C//DTD SVG 1.1//EN" "http://www.w3.org/Graphics/SVG/1.1/DTD/svg11.dtd">
<svg version="1.1" id="Layer_1" xmlns="http://www.w3.org/2000/svg" xmlns:xlink="http://www.w3.org/1999/xlink" x="0px" y="0px"
	 width="650px" height="690px" viewBox="0 0 650 690" enable-background="new 0 0 650 690" xml:space="preserve">
<g>
	<path fill-rule="evenodd" clip-rule="evenodd" fill="#ED1B68" d="M404.668,447.945c-24.997,0-49.994,0-74.991,0
		c-24.996,0-49.993,0-74.99,0c-10.475-1.668-21.07-3.384-31.374-5.325c-10.304-1.94-20.314-4.106-29.618-6.673
		c-28.521-7.869-53.753-18.882-74.613-34.294c-20.859-15.413-37.345-35.226-48.372-60.694
		c-11.258-26.002-17.858-59.376-18.718-92.309c-0.861-32.934,4.019-65.427,15.719-89.668c3.984-8.254,8.898-15.458,13.859-22.371
		s9.968-13.534,14.137-20.624c-6.413-16.524-8.621-38.077-7.246-58.846c1.375-20.768,6.331-40.752,14.245-54.14
		c25.721-0.516,46.674,5.845,65.468,14.78c18.794,8.934,35.43,20.44,52.517,30.214c25.589-7.649,56.113-12.21,87.474-13.579
		c31.362-1.369,63.561,0.456,92.502,5.58c4.385,0.776,8.921,2.193,13.093,3.333c4.171,1.14,7.978,2.001,10.904,1.667
		c3.749-0.429,7.616-2.813,11.737-5.772c4.12-2.96,8.495-6.495,13.26-9.226c13.455-7.711,27.168-14.775,42.033-19.753
		s30.885-7.872,48.956-7.243c5.927,13.394,10.399,31.448,12.154,50.374c1.755,18.927,0.792,38.727-4.155,55.612
		c9.963,11.557,20.432,25.32,29.175,41.31c8.743,15.991,15.76,34.209,18.818,54.678c3.199,21.408,3.518,44.75,1.502,67.442
		c-2.015,22.692-6.364,44.734-12.5,63.542c-12.24,37.519-35.524,63.226-66.729,80.698S448.589,443.367,404.668,447.945z
		 M489.657,259.969c1.632-1.633,6.166-5.581,10.274-9.522c4.108-3.94,7.792-7.874,7.724-9.475c-0.021-0.502-2.719-3.206-5.937-6.182
		c-3.218-2.977-6.957-6.226-9.062-7.816c-17.335-13.104-42.914-16.491-70.242-16.408c-27.327,0.082-56.405,3.634-80.739,4.409
		c7.541,8.791,16.478,18.353,25.935,27.81s19.435,18.81,29.059,27.184c11.308-3.044,26.023-4.031,39.804-2.89
		s26.624,4.413,34.188,9.889c3.545-2.453,6.434-4.842,9.366-7.547C482.959,266.714,485.936,263.691,489.657,259.969z
		 M341.676,250.971c-5.15-5.15-11.273-13.105-17.796-20.294c-6.523-7.189-13.447-13.613-20.198-15.702
		c-6.781-2.098-14.702-2.592-22.841-2.688s-16.497,0.202-24.153-0.312c-8.358-0.561-16.906-1.098-25.215-1.352
		s-16.378-0.224-23.779,0.353c-23.868,1.856-43.822,11.941-58.456,26.519c-14.634,14.576-23.948,33.645-26.533,53.471
		c-3.5,26.836,1.12,50.238,11.303,69.354c10.184,19.115,25.932,33.944,44.69,43.632c19.313,9.975,42.34,15.974,67.398,19.479
		c25.058,3.505,52.147,4.518,79.583,4.518c28.117,0,56.255,0.089,82.292-2.241c26.036-2.33,49.974-7.08,69.689-16.757
		c17.839-8.755,32.879-23.063,42.688-42.653c9.81-19.589,14.389-44.457,11.305-74.332c-0.588-5.689-1.644-9.788-3.274-14.164
		c-1.632-4.376-3.837-9.03-6.725-15.832c-5.45,3.051-11.14,8.026-16.621,13.626c-5.481,5.599-10.756,11.823-15.375,17.37
		c6.208,4.973,9.548,13.661,10.416,22.761c0.868,9.101-0.736,18.612-4.417,25.233c-9.438,16.979-29.492,27.679-50.657,29.783
		c-21.165,2.105-43.442-4.385-57.329-21.784c-5.65-7.081-10.34-16.909-12.521-27.678c-2.182-10.768-1.855-22.476,2.522-33.314
		c-5.175-6.82-10.831-12.728-16.865-18.6C354.771,263.493,348.36,257.654,341.676,250.971z"/>
	<path fill-rule="evenodd" clip-rule="evenodd" fill="#ED1B68" d="M212.692,268.968c21.592-4.06,32.463,18.33,32.25,40.538
		c-0.213,22.209-11.509,44.236-34.25,39.452c-15.352-3.229-22.432-21.802-21.884-40.279S197.532,271.818,212.692,268.968z"/>
	<path fill-rule="evenodd" clip-rule="evenodd" fill="#ED1B68" d="M324.678,352.957c4.86-1.398,8.3-0.771,10.555,1.016
		c2.255,1.789,3.325,4.738,3.442,7.983c0.481,13.235-9.387,12.819-16.19,8.177C315.682,365.491,311.942,356.624,324.678,352.957z"/>
	<path fill-rule="evenodd" clip-rule="evenodd" fill="#ED1B68" d="M303.681,384.953c0.333,0,0.667,0,1,0c0.333,0,0.666,0,1,0
		c3.562,4.146,7.077,8.399,11.194,11.365c4.117,2.965,8.835,4.641,14.803,3.633c4.164-0.703,6.93-2.982,9.396-5.82
		s4.634-6.236,7.601-9.178c4.751,3.766,2.925,8.969-1.3,13.379c-4.226,4.41-10.851,8.027-15.697,8.619
		c-6.674,0.814-14.387-1.423-20.075-5.494C305.916,397.385,302.253,391.479,303.681,384.953z"/>
</g>
<g>
	<g>
		<path id="sword" fill="#ED1B68" d="M624.447,628.434l-8.299-1.033c-5.188-1.043-9.342,2.067-10.377,7.255l-80.92-15.563
			l6.221-29.049l8.299,2.077c2.074,0,4.154-1.032,5.186-3.109l1.043-6.23c0-2.067-1.043-4.146-3.109-5.188l-22.826-6.22
			c-2.078,0-4.154,1.031-5.188,3.109l-1.045,6.231c0,1.033,0,2.067,0,3.109l-5.186,23.86
			C187.669,540.248,139.945,484.22,81.845,396.035C46.571,567.219,360.932,622.212,500.992,651.26l-4.154,19.707l-8.299-2.067
			c-2.074,0-4.154,1.033-5.186,3.111l-1.043,6.221c0,2.076,1.043,4.152,3.117,5.187l21.783,4.154c2.078,0,4.154-1.043,5.189-3.11
			l1.031-6.23c0-1.034,0-2.078,0-2.078l6.232-30.08l81.955,16.595v1.044c-1.033,5.188,2.078,9.331,7.264,10.375l7.266,1.034
			c5.188,1.032,9.342-2.078,10.373-7.265l5.189-28.015C632.744,633.622,629.633,629.468,624.447,628.434z"/>
	</g>
	<g transform="scale(-1, 1) translate(-60)">
		<g>
			<path id="sword_1_" fill="#ED1B68" d="M33.14,628.434l-8.298-1.033c-5.188-1.043-9.336,2.067-10.375,7.255l-80.921-15.563
				l6.221-29.049l8.304,2.077c2.071,0,4.148-1.032,5.186-3.109l1.039-6.23c0-2.067-1.039-4.146-3.115-5.188l-22.822-6.22
				c-2.077,0-4.154,1.031-5.187,3.109l-1.038,6.231c0,1.033,0,2.067,0,3.109l-5.187,23.86
				c-320.58-67.436-368.311-123.464-426.406-211.648C-544.74,567.219-230.379,622.212-90.32,651.26l-4.148,19.707l-8.298-2.067
				c-2.077,0-4.154,1.033-5.188,3.111l-1.039,6.221c0,2.076,1.039,4.152,3.111,5.187l21.787,4.154c2.077,0,4.15-1.043,5.188-3.11
				l1.039-6.23c0-1.034,0-2.078,0-2.078l6.225-30.08l81.961,16.595v1.044c-1.039,5.188,2.071,9.331,7.26,10.375l7.264,1.034
				c5.188,1.032,9.337-2.078,10.375-7.265l5.187-28.015C41.443,633.622,38.327,629.468,33.14,628.434z"/>
		</g>
	</g>
</g>
</svg>
